Coordinates
version=1
nRows=18
nColumns=22
inDegrees=yes

Units are S.I. units (second, meters, Newtons, ...)
If the header above contains a line with 'inDegrees', this indicates whether rotational values are in degrees (yes) or radians (no).

endheader
time	pelvis_tilt	pelvis_list	pelvis_rotation	pelvis_tx	pelvis_ty	pelvis_tz	hip_flexion_r	hip_adduction_r	hip_rotation_r	knee_angle_r	ankle_angle_r	subtalar_angle_r	hip_flexion_l	hip_adduction_l	hip_rotation_l	knee_angle_l	ankle_angle_l	subtalar_angle_l	lumbar_extension	lumbar_bending	lumbar_rotation
      0.01000000	      0.78161134	     -1.47297150	     -4.24085601	      0.10276800	      0.94193221	      1.23118530	      7.58368517	      0.66842615	     -8.35264094	    -21.70725733	     12.71752271	      1.01573338	      7.56822730	     -1.88233485	     -5.54413401	    -22.53269227	     14.07130696	     -3.50611911	    -10.62221152	     -1.76788469	     -7.93918400
      0.02000000	      0.75615206	     -1.47156948	     -4.19514054	      0.10309238	      0.94193058	      1.23112574	      7.55564426	      0.67259270	     -8.35038348	    -21.65680568	     12.74997356	      1.02437791	      7.56388597	     -1.88106384	     -5.55023741	    -22.50370761	     14.08589001	     -3.53759768	    -10.58161420	     -1.75178249	     -7.96383354
      0.03000000	      0.72317567	     -1.46543991	     -4.11181358	      0.10343958	      0.94190336	      1.23099874	      7.54575320	      0.66377601	     -8.37825047	    -21.63824112	     12.84768383	      1.08044562	      7.56858590	     -1.85617535	     -5.44347142	    -22.47104233	     14.12297167	     -3.61431250	    -10.54060283	     -1.73306092	     -8.00870403
      0.04000000	      0.66733733	     -1.44220141	     -4.02832836	      0.10384719	      0.94185085	      1.23088422	      7.55714889	      0.63432363	     -8.43113457	    -21.61943923	     12.93541036	      1.15915665	      7.58185665	     -1.81593334	     -5.35666563	    -22.40991144	     14.14448859	     -3.67118752	    -10.47107776	     -1.73347055	     -8.05401862
      0.05000000	      0.60297837	     -1.41327157	     -3.93901274	      0.10429880	      0.94177857	      1.23076898	      7.58092478	      0.59772923	     -8.48776666	    -21.61417570	     13.03603718	      1.25709500	      7.60374058	     -1.76812246	     -5.25844316	    -22.35260888	     14.16421407	     -3.71742452	    -10.38882850	     -1.73823615	     -8.10885176
      0.06000000	      0.52733750	     -1.37875951	     -3.84227926	      0.10475454	      0.94168542	      1.23066023	      7.61852249	      0.55508916	     -8.55433533	    -21.61323559	     13.14383125	      1.36743641	      7.63627679	     -1.71431951	     -5.15188365	    -22.28926550	     14.18504828	     -3.75783309	    -10.30199982	     -1.74945927	     -8.17085292
      0.07000000	      0.44533635	     -1.34112114	     -3.74477467	      0.10525554	      0.94157429	      1.23056600	      7.66073579	      0.50820450	     -8.62696547	    -21.61582864	     13.25760817	      1.48311209	      7.67281091	     -1.65798661	     -5.04023007	    -22.22747892	     14.20787680	     -3.79394567	    -10.20220317	     -1.76345725	     -8.23936697
      0.08000000	      0.35749571	     -1.30166877	     -3.64430316	      0.10574512	      0.94144906	      1.23048824	      7.71045255	      0.46060798	     -8.70517609	    -21.61878138	     13.37314912	      1.60142849	      7.71779004	     -1.60111837	     -4.92727541	    -22.16721624	     14.23316270	     -3.82782956	    -10.10581957	     -1.77918553	     -8.31151322
      0.09000000	      0.26943832	     -1.26430614	     -3.54516615	      0.10626742	      0.94132196	      1.23044933	      7.75349037	      0.41816064	     -8.78339825	    -21.61412665	     13.48704191	      1.71295131	      7.76074589	     -1.55010359	     -4.81662461	    -22.10886879	     14.26207824	     -3.85845202	    -10.00830720	     -1.79299792	     -8.38307241
      0.10000000	      0.18369991	     -1.23071513	     -3.44229302	      0.10680946	      0.94120264	      1.23044666	      7.78579765	      0.38360907	     -8.86417424	    -21.59637749	     13.59836107	      1.81516704	      7.79945685	     -1.50621792	     -4.70563213	    -22.05038279	     14.29481172	     -3.88734643	     -9.92011605	     -1.80424276	     -8.45368841
      0.11000000	      0.10341755	     -1.20411910	     -3.33716716	      0.10740084	      0.94110357	      1.23049203	      7.79733191	      0.36230321	     -8.94290695	    -21.55808316	     13.70418174	      1.90072878	      7.82595136	     -1.47326434	     -4.59482321	    -21.98747226	     14.33138164	     -3.91387384	     -9.84059249	     -1.81090984	     -8.51987388
      0.12000000	      0.02749376	     -1.18403945	     -3.22694956	      0.10805312	      0.94102418	      1.23057094	      7.79048674	      0.35165122	     -9.02590354	    -21.50331656	     13.80080674	      1.97382387	      7.84119431	     -1.44968605	     -4.48276851	    -21.92039839	     14.36920526	     -3.94198698	     -9.76716104	     -1.81076562	     -8.58400126
      0.13000000	     -0.04646542	     -1.17095421	     -3.11538228	      0.10876979	      0.94096239	      1.23068868	      7.76810689	      0.35348849	     -9.10584860	    -21.43340328	     13.88798148	      2.03263601	      7.84586995	     -1.43577683	     -4.36883506	    -21.84628136	     14.40764338	     -3.97225578	     -9.69635584	     -1.80462920	     -8.64241997
      0.14000000	     -0.12043222	     -1.16328866	     -3.00265952	      0.10953847	      0.94090805	      1.23083070	      7.73733375	      0.36468550	     -9.18214662	    -21.35547276	     13.96752210	      2.07783304	      7.84404137	     -1.42828096	     -4.25154577	    -21.76656998	     14.44541363	     -4.00662213	     -9.62814172	     -1.79290982	     -8.69538524
      0.15000000	     -0.19589355	     -1.15849811	     -2.89370380	      0.11035615	      0.94085650	      1.23100044	      7.70227590	      0.38242200	     -9.25119856	    -21.27202981	     14.04156392	      2.10785602	      7.83646145	     -1.42547939	     -4.13785820	    -21.68079395	     14.48087711	     -4.04414338	     -9.56039613	     -1.77813630	     -8.73919829
      0.16000000	     -0.26991286	     -1.15465873	     -2.78319956	      0.11121978	      0.94080034	      1.23118313	      7.66226517	      0.40314520	     -9.31777972	    -21.18819913	     14.11656672	      2.12550480	      7.82268730	     -1.42323568	     -4.02029119	    -21.59158432	     14.51555730	     -4.08736103	     -9.49656735	     -1.76030340	     -8.77911390
      0.17000000	     -0.34027954	     -1.15031733	     -2.67333532	      0.11213458	      0.94074327	      1.23138600	      7.61392570	      0.42487691	     -9.38400319	    -21.10263141	     14.19582436	      2.13301771	      7.79837682	     -1.42107156	     -3.90134652	    -21.49668142	     14.54972782	     -4.13485001	     -9.43864836	     -1.74206211	     -8.81302355
      0.18000000	     -0.79937669	     -1.09818472	     -2.76121063	      0.11201557	      0.94004532	      1.23170531	      8.15700489	      0.33717281	     -9.85720211	    -21.16037554	     14.22683306	      2.11736310	      8.34032988	     -1.40106807	     -3.91652222	    -21.57991077	     14.55182416	     -4.25871671	     -9.05806884	     -1.75550387	     -8.66856094
